<?xml version="1.0" encoding="utf-8"?>
<!-- Generator: Adobe Illustrator 17.0.0, SVG Export Plug-In . SVG Version: 6.00 Build 0)  -->
<!DOCTYPE svg PUBLIC "-//W3C//DTD SVG 1.1//EN" "http://www.w3.org/Graphics/SVG/1.1/DTD/svg11.dtd">
<svg version="1.1" id="Layer_1" xmlns="http://www.w3.org/2000/svg" xmlns:xlink="http://www.w3.org/1999/xlink" x="0px" y="0px"
	 width="20.833px" height="20.542px" viewBox="0 0 20.833 20.542" enable-background="new 0 0 20.833 20.542" xml:space="preserve">
<circle cx="10.478" cy="10.146" r="9.542"/>
<path opacity="0.8" fill="#B1AAAA" enable-background="new    " d="M16.259,10.041h-5.497l0,0l0,0V4.543
	c0-0.157-0.127-0.284-0.284-0.284c-0.157,0-0.284,0.127-0.284,0.284v5.497l0,0l0,0H4.696c-0.157,0-0.284,0.127-0.284,0.284
	c0,0.157,0.127,0.284,0.284,0.284h5.497l0,0l0,0v5.497c0,0.079,0.032,0.15,0.083,0.201c0.052,0.052,0.122,0.083,0.201,0.083
	c0.157,0,0.284-0.127,0.284-0.284v-5.497l0,0l0,0h5.497c0.079,0,0.15-0.032,0.202-0.083c0.052-0.052,0.083-0.122,0.083-0.201
	C16.544,10.168,16.416,10.041,16.259,10.041z"/>
</svg>
