<?xml version="1.0" encoding="utf-8"?>
<!-- Generator: Adobe Illustrator 17.0.0, SVG Export Plug-In . SVG Version: 6.00 Build 0)  -->
<!DOCTYPE svg PUBLIC "-//W3C//DTD SVG 1.1//EN" "http://www.w3.org/Graphics/SVG/1.1/DTD/svg11.dtd">
<svg version="1.1" id="Layer_1" xmlns="http://www.w3.org/2000/svg" xmlns:xlink="http://www.w3.org/1999/xlink" x="0px" y="0px"
	 width="20.833px" height="20.542px" viewBox="0 0 20.833 20.542" enable-background="new 0 0 20.833 20.542" xml:space="preserve">
<path opacity="0.8" fill="#B1AAAA" d="M17.615,9.974h-6.786h0v0V3.187c0-0.194-0.157-0.351-0.351-0.351
	c-0.194,0-0.351,0.157-0.351,0.351l0,6.787v0h0H3.34c-0.194,0-0.351,0.157-0.351,0.351c0,0.194,0.157,0.351,0.351,0.351l6.786,0h0v0
	v6.786c0,0.097,0.039,0.185,0.103,0.248c0.064,0.064,0.151,0.103,0.248,0.103c0.194,0,0.351-0.157,0.351-0.351l0-6.786v0h0h6.786
	c0.097,0,0.185-0.039,0.249-0.103c0.064-0.064,0.103-0.151,0.103-0.248C17.967,10.131,17.809,9.974,17.615,9.974z"/>
</svg>
