<?xml version="1.0" encoding="utf-8"?>
<!-- Generator: Adobe Illustrator 17.0.0, SVG Export Plug-In . SVG Version: 6.00 Build 0)  -->
<!DOCTYPE svg PUBLIC "-//W3C//DTD SVG 1.1//EN" "http://www.w3.org/Graphics/SVG/1.1/DTD/svg11.dtd">
<svg version="1.1" id="Isolation_Mode" xmlns="http://www.w3.org/2000/svg" xmlns:xlink="http://www.w3.org/1999/xlink" x="0px"
	 y="0px" width="21px" height="26.188px" viewBox="126.243 161.5 21 26.188" enable-background="new 126.243 161.5 21 26.188"
	 xml:space="preserve">
<circle fill="#FFFFFF" cx="136.858" cy="171.816" r="7.652"/>
<path d="M136.867,186.639c-0.604-1.441-1.64-2.539-2.652-3.653c-1.371-1.51-2.778-2.99-4.112-4.532
	c-1.094-1.266-2.015-2.667-2.531-4.277c-0.973-3.033-0.285-5.783,1.71-8.164c3.793-4.529,10.725-4.702,14.759-0.383
	c2.528,2.707,3.412,6.537,1.196,10.437c-1.08,1.9-2.531,3.501-3.99,5.103c-1.179,1.296-2.331,2.618-3.456,3.963
	C137.423,185.572,137.182,186.117,136.867,186.639z M143.664,171.817c0.008-3.792-3.055-6.843-6.868-6.843
	c-3.744,0-6.792,3.061-6.805,6.832c-0.013,3.768,3.03,6.821,6.83,6.853C140.559,178.69,143.656,175.593,143.664,171.817z"/>
</svg>
